<?xml version="1.0" encoding="utf-8"?>
<!-- Generator: Adobe Illustrator 27.7.0, SVG Export Plug-In . SVG Version: 6.00 Build 0)  -->
<svg version="1.1" id="Layer_1" xmlns="http://www.w3.org/2000/svg" xmlns:xlink="http://www.w3.org/1999/xlink" x="0px" y="0px"
	 viewBox="0 0 276.57 133.45" style="enable-background:new 0 0 276.57 133.45;" xml:space="preserve">
<style type="text/css">
	.st0{fill:#231F20;}
</style>
<path class="st0" d="M238.42,46.63c0,0,7.57,7.68,10.96,11.14c-3.39,3.36-10.96,11.05-10.96,11.05l5.1,5.16l16.04-16.24l-16.04-16.3
	l-5.1,5.16l0,0V46.63z"/>
<path class="st0" d="M244.97,80.01c0,0-7.57-7.68-10.87-11.14c3.33-3.36,10.87-11.05,10.87-11.05l-5.1-5.16l-15.98,16.24l15.98,16.3
	l5.1-5.16l0,0V80.01z"/>
<path class="st0" d="M45.26,49.94v9.63h-1.62c-0.06-0.35-0.2-0.78-0.35-1.45c-1.62-6.23-3.6-9.4-6-9.4c-3.33,0-5.94,1.51-7.71,4.52
	c-1.77,2.96-2.7,7.34-2.7,12.93s0.84,10.21,2.46,13.14c1.62,2.96,4.03,4.44,7.22,4.44c2.84,0,5.22-3.65,7.08-10.99
	c0.14-0.64,0.29-1.16,0.35-1.45h1.62v10.76c-1.19,0.87-2.55,1.51-4.09,2c-1.48,0.49-3.04,0.78-4.47,0.78
	c-4.58,0-8.35-1.71-11.25-5.1c-2.9-3.36-4.38-7.74-4.38-13.08c0-5.6,1.48-10.12,4.52-13.72c2.96-3.6,6.79-5.39,11.37-5.39
	c1.48,0,2.9,0.2,4.23,0.58c1.33,0.35,2.55,0.93,3.68,1.71 M49.41,48.29h7.28v34.54h2.84v1.3H49.41v-1.3h2.61V49.59h-2.61V48.29z
	 M66.83,67.54h10.03V65.6c0-2.52-0.35-4.38-1.07-5.6c-0.78-1.22-1.83-1.8-3.33-1.8c-1.68,0-3.04,0.78-3.94,2.44
	c-0.99,1.65-1.57,3.94-1.71,6.9 M80.73,73.86h1.33c-0.2,3.51-1.13,6.23-2.84,8.12c-1.62,1.86-3.83,2.87-6.64,2.87
	c-3.1,0-5.71-1.36-7.86-3.94c-2.06-2.67-3.1-5.97-3.1-9.98s1.07-7.34,3.1-9.92c2.06-2.58,4.67-3.89,7.77-3.89s5.22,0.93,6.84,2.87
	c1.57,1.94,2.41,4.67,2.41,8.12v0.72H66.6v1.07c-0.06,0.43-0.06,0.87-0.06,1.16c0,4.03,0.58,7.1,1.68,9.19
	c1.13,2.09,2.75,3.16,4.96,3.16c2.2,0,3.83-0.87,5.16-2.58c1.33-1.65,2.12-4.03,2.32-6.96 M99.2,68.64c-0.93,0.64-2.12,1.3-3.6,1.86
	c-1.48,0.64-2.32,1.01-2.7,1.07c-0.99,0.58-1.77,1.3-2.26,2.23c-0.49,1.01-0.7,2.23-0.7,3.8c0,1.71,0.29,3.07,0.99,4.03
	c0.7,1.01,1.71,1.51,2.9,1.51c1.68,0,2.96-0.93,3.94-2.81c0.99-1.86,1.42-4.47,1.42-7.68v-4.03l0,0V68.64z M87.45,59.39
	c1.28-0.78,2.55-1.36,3.83-1.71c1.19-0.35,2.55-0.49,3.97-0.49c1.33,0,2.61,0.2,3.83,0.64c1.19,0.35,2.12,0.93,2.84,1.65
	s1.19,1.57,1.57,2.58c0.29,1.01,0.43,2.67,0.43,4.96v15.86h2.7v1.3H99.4v-4.81c-0.7,1.86-1.62,3.31-2.84,4.18
	c-1.13,0.87-2.61,1.36-4.38,1.36c-2.12,0-3.74-0.64-5.1-1.94c-1.28-1.3-1.91-3.02-1.91-5.02s0.58-3.74,1.62-4.87
	c1.07-1.16,2.96-2.09,5.71-2.78l0.29-0.09c3.33-0.93,5.45-1.86,6.44-2.96v-2.29c0-2.44-0.29-4.18-0.99-5.16
	c-0.7-1.01-1.91-1.45-3.54-1.45c-2.12,0-3.89,2.67-5.36,7.97c-0.14,0.58-0.2,1.01-0.35,1.3h-1.48v-8.18L87.45,59.39z M109.84,84.16
	v-1.3h2.61V59.16h-2.61v-1.3h7.08v4.18c0.49-1.57,1.33-2.73,2.41-3.6c1.13-0.87,2.41-1.3,3.97-1.3c0.58,0,1.13,0.06,1.62,0.2
	c0.58,0.14,1.07,0.35,1.62,0.72v9.54l-1.57-0.06c-0.14-0.29-0.2-0.78-0.35-1.36c-1.07-4.87-2.12-7.34-3.25-7.34
	c-1.19,0-2.2,0.87-3.04,2.58c-0.84,1.65-1.28,3.89-1.28,6.61v14.79h3.83v1.3h-11.05V84.16z"/>
<path class="st0" d="M145.94,49.71h-2.9v33.46h3.39v1.3h-11.95v-1.3h3.45V49.71h-2.9c-1.71,0-3.19,2.81-4.32,8.41
	c-0.2,0.78-0.35,1.36-0.43,1.8h-1.28V48.64h22.91v11.28h-1.33c-0.09-0.35-0.2-1.01-0.35-1.8c-1.13-5.6-2.61-8.41-4.32-8.41
	 M154.27,84.45v-1.3h2.61V59.45h-2.61v-1.3h6.99v4.18c0.55-1.57,1.33-2.73,2.46-3.6c1.07-0.87,2.41-1.3,3.89-1.3
	c0.58,0,1.13,0.06,1.62,0.2c0.58,0.14,1.07,0.35,1.62,0.72v9.54l-1.57-0.06c-0.06-0.29-0.2-0.78-0.35-1.36
	c-1.07-4.87-2.12-7.34-3.25-7.34c-1.19,0-2.2,0.87-3.04,2.58c-0.84,1.65-1.28,3.89-1.28,6.61v14.79h3.83v1.3h-10.96l0,0
	L154.27,84.45z M186.83,68.93c-0.99,0.64-2.2,1.3-3.6,1.86c-1.48,0.64-2.41,1.01-2.7,1.07c-1.07,0.58-1.83,1.3-2.32,2.23
	c-0.49,1.01-0.7,2.23-0.7,3.8c0,1.71,0.35,3.07,1.07,4.03c0.7,1.01,1.62,1.51,2.84,1.51c1.71,0,3.04-0.93,3.97-2.81
	c0.99-1.86,1.48-4.47,1.48-7.68v-4.03h-0.06V68.93z M175.09,59.68c1.19-0.78,2.46-1.36,3.74-1.71c1.28-0.35,2.55-0.49,3.94-0.49
	c1.39,0,2.7,0.2,3.89,0.64c1.13,0.35,2.12,0.93,2.75,1.65c0.78,0.72,1.28,1.57,1.57,2.58c0.29,1.01,0.43,2.67,0.43,4.96v15.86h2.75
	v1.3h-7.28v-4.81c-0.7,1.86-1.62,3.31-2.75,4.18c-1.19,0.87-2.7,1.36-4.47,1.36c-2.06,0-3.74-0.64-5.02-1.94
	c-1.33-1.3-1.97-3.02-1.97-5.02s0.58-3.74,1.62-4.87c1.07-1.16,3.04-2.09,5.8-2.78l0.29-0.09c3.25-0.93,5.45-1.86,6.44-2.96v-2.29
	c0-2.44-0.35-4.18-1.07-5.16c-0.7-1.01-1.83-1.45-3.54-1.45c-2.12,0-3.89,2.67-5.31,7.97c-0.14,0.58-0.29,1.01-0.35,1.3h-1.48V59.68
	z M199.3,51.71c0-0.78,0.2-1.51,0.78-2c0.49-0.58,1.13-0.78,1.91-0.78c0.78,0,1.42,0.2,1.91,0.78c0.58,0.49,0.78,1.16,0.78,1.94
	s-0.2,1.51-0.7,2c-0.49,0.58-1.13,0.87-1.91,0.87c-0.78,0-1.42-0.29-1.97-0.78c-0.49-0.58-0.78-1.22-0.78-2 M197.5,58.21h7.22v25
	h2.61v1.3h-9.83v-1.3h2.61V59.51h-2.61V58.21z M210.41,48.66h7.28V83.2h2.84v1.3h-10.12v-1.3h2.61V49.97h-2.61V48.66z"/>
</svg>
